<mxfile host="app.diagrams.net" modified="2022-05-07T10:20:30.373Z" agent="5.0 (Windows NT 10.0; Win64; x64) AppleWebKit/537.36 (KHTML, like Gecko) Chrome/101.0.4951.54 Safari/537.36" etag="6MlEq0XUJiL4VDeCdpfD" version="18.0.1" type="github">
  <diagram id="omVY5k7PrCiyqekQYCM-" name="Page-1">
    <mxGraphModel dx="1040" dy="1823" grid="1" gridSize="10" guides="1" tooltips="1" connect="1" arrows="1" fold="1" page="1" pageScale="1" pageWidth="827" pageHeight="1169" math="0" shadow="0">
      <root>
        <mxCell id="0" />
        <mxCell id="1" parent="0" />
        <mxCell id="VHXrihgOCbLs_OiDuqxB-1" value="Người sử dụng" style="shape=umlActor;verticalLabelPosition=bottom;verticalAlign=top;html=1;outlineConnect=0;" vertex="1" parent="1">
          <mxGeometry x="120" y="-450" width="60" height="100" as="geometry" />
        </mxCell>
        <mxCell id="VHXrihgOCbLs_OiDuqxB-2" value="" style="endArrow=classic;html=1;rounded=0;" edge="1" parent="1">
          <mxGeometry width="50" height="50" relative="1" as="geometry">
            <mxPoint x="200" y="-410" as="sourcePoint" />
            <mxPoint x="350" y="-410" as="targetPoint" />
          </mxGeometry>
        </mxCell>
        <mxCell id="VHXrihgOCbLs_OiDuqxB-3" value="" style="endArrow=classic;html=1;rounded=0;" edge="1" parent="1">
          <mxGeometry width="50" height="50" relative="1" as="geometry">
            <mxPoint x="350" y="-380" as="sourcePoint" />
            <mxPoint x="200" y="-380" as="targetPoint" />
          </mxGeometry>
        </mxCell>
        <mxCell id="VHXrihgOCbLs_OiDuqxB-4" value="&lt;font style=&quot;font-size: 14px;&quot;&gt;&lt;b&gt;Website&lt;/b&gt;&lt;br&gt;(Web server - FrontEnd)&lt;br&gt;&lt;/font&gt;" style="rounded=0;whiteSpace=wrap;html=1;" vertex="1" parent="1">
          <mxGeometry x="370" y="-430" width="170" height="80" as="geometry" />
        </mxCell>
        <mxCell id="VHXrihgOCbLs_OiDuqxB-5" value="" style="rounded=0;whiteSpace=wrap;html=1;fontSize=14;" vertex="1" parent="1">
          <mxGeometry x="641" y="-480" width="440" height="230" as="geometry" />
        </mxCell>
        <mxCell id="VHXrihgOCbLs_OiDuqxB-10" value="Backend" style="text;html=1;strokeColor=none;fillColor=none;align=center;verticalAlign=middle;whiteSpace=wrap;rounded=0;fontSize=14;fontStyle=1" vertex="1" parent="1">
          <mxGeometry x="831" y="-470" width="60" height="30" as="geometry" />
        </mxCell>
        <mxCell id="VHXrihgOCbLs_OiDuqxB-11" value="API Controller" style="rounded=0;whiteSpace=wrap;html=1;fontSize=14;" vertex="1" parent="1">
          <mxGeometry x="671" y="-420" width="120" height="60" as="geometry" />
        </mxCell>
        <mxCell id="VHXrihgOCbLs_OiDuqxB-12" value="Blockchain&lt;br&gt;(smartcontract)" style="rounded=0;whiteSpace=wrap;html=1;fontSize=14;" vertex="1" parent="1">
          <mxGeometry x="911" y="-420" width="120" height="60" as="geometry" />
        </mxCell>
        <mxCell id="VHXrihgOCbLs_OiDuqxB-13" value="Database 01" style="rounded=0;whiteSpace=wrap;html=1;fontSize=14;" vertex="1" parent="1">
          <mxGeometry x="741" y="-310" width="100" height="40" as="geometry" />
        </mxCell>
        <mxCell id="VHXrihgOCbLs_OiDuqxB-14" value="Database 02" style="rounded=0;whiteSpace=wrap;html=1;fontSize=14;" vertex="1" parent="1">
          <mxGeometry x="881" y="-310" width="100" height="40" as="geometry" />
        </mxCell>
        <mxCell id="VHXrihgOCbLs_OiDuqxB-16" value="" style="endArrow=classic;startArrow=classic;html=1;rounded=0;fontSize=14;exitX=0.5;exitY=1;exitDx=0;exitDy=0;entryX=0.5;entryY=0;entryDx=0;entryDy=0;" edge="1" parent="1" source="VHXrihgOCbLs_OiDuqxB-11" target="VHXrihgOCbLs_OiDuqxB-13">
          <mxGeometry width="50" height="50" relative="1" as="geometry">
            <mxPoint x="801" y="-250" as="sourcePoint" />
            <mxPoint x="851" y="-300" as="targetPoint" />
          </mxGeometry>
        </mxCell>
        <mxCell id="VHXrihgOCbLs_OiDuqxB-17" value="" style="endArrow=classic;startArrow=classic;html=1;rounded=0;fontSize=14;exitX=0.567;exitY=1.017;exitDx=0;exitDy=0;entryX=0.5;entryY=0;entryDx=0;entryDy=0;exitPerimeter=0;" edge="1" parent="1" source="VHXrihgOCbLs_OiDuqxB-11" target="VHXrihgOCbLs_OiDuqxB-14">
          <mxGeometry width="50" height="50" relative="1" as="geometry">
            <mxPoint x="741" y="-350" as="sourcePoint" />
            <mxPoint x="801" y="-300" as="targetPoint" />
          </mxGeometry>
        </mxCell>
        <mxCell id="VHXrihgOCbLs_OiDuqxB-18" value="" style="endArrow=classic;startArrow=classic;html=1;rounded=0;fontSize=14;exitX=1;exitY=0.5;exitDx=0;exitDy=0;entryX=0;entryY=0.5;entryDx=0;entryDy=0;" edge="1" parent="1" source="VHXrihgOCbLs_OiDuqxB-11" target="VHXrihgOCbLs_OiDuqxB-12">
          <mxGeometry width="50" height="50" relative="1" as="geometry">
            <mxPoint x="741" y="-350" as="sourcePoint" />
            <mxPoint x="801" y="-300" as="targetPoint" />
          </mxGeometry>
        </mxCell>
        <mxCell id="VHXrihgOCbLs_OiDuqxB-19" value="" style="endArrow=classic;html=1;rounded=0;fontSize=14;exitX=0;exitY=0.25;exitDx=0;exitDy=0;entryX=1;entryY=0.338;entryDx=0;entryDy=0;entryPerimeter=0;" edge="1" parent="1" source="VHXrihgOCbLs_OiDuqxB-11" target="VHXrihgOCbLs_OiDuqxB-4">
          <mxGeometry width="50" height="50" relative="1" as="geometry">
            <mxPoint x="550" y="-300" as="sourcePoint" />
            <mxPoint x="540" y="-400" as="targetPoint" />
          </mxGeometry>
        </mxCell>
        <mxCell id="VHXrihgOCbLs_OiDuqxB-20" value="" style="endArrow=classic;html=1;rounded=0;fontSize=14;exitX=1.006;exitY=0.65;exitDx=0;exitDy=0;exitPerimeter=0;" edge="1" parent="1" source="VHXrihgOCbLs_OiDuqxB-4">
          <mxGeometry width="50" height="50" relative="1" as="geometry">
            <mxPoint x="590" y="-380" as="sourcePoint" />
            <mxPoint x="671" y="-380" as="targetPoint" />
          </mxGeometry>
        </mxCell>
      </root>
    </mxGraphModel>
  </diagram>
</mxfile>
